<?xml version="1.0" encoding="iso-8859-1"?>
<!-- Generator: Adobe Illustrator 22.0.0, SVG Export Plug-In . SVG Version: 6.00 Build 0)  -->
<svg version="1.1" id="Layer_1" xmlns="http://www.w3.org/2000/svg" xmlns:xlink="http://www.w3.org/1999/xlink" x="0px" y="0px"
	 viewBox="0 0 792 612" style="enable-background:new 0 0 792 612;" xml:space="preserve">
<path d="M782.779,345.903c-8.9-2.81-17.73-6.29-25.77-11.18c0,0-0.82,0-0.82-0.73c-8.06-4.89-15.3-11.87-21.71-18.19
	c-2.45-2.09-5.64-4.19-8.06-6.3c0,0.7,0,0.7-0.8,0.7c0,0,0,0-0.81,0c-4.82,0-8.85,2.8-13.7,4.19c0.82-0.68,1.63-0.68,1.63-1.39
	c0-0.68-0.81-1.39-1.63-1.39c-3.22-0.7-6.43,0.71-9.65,1.39c2.4-4.18,6.43-8.37,11.28-11.19c0.79,0,0.79,0,1.61-0.7
	c0-1.39-0.82-2.09-1.61-1.39h-0.81c-6.44-4.21-14.5-8.41-22.56-10.51c-4.03-1.4-7.22-2.11-11.25-2.79c1.63-0.71,4.03-2.12,5.64-3.5
	c0.81,0.7,1.58-0.69,0.81-1.39h-0.81c0-0.73-0.8-0.73-0.8-0.73c-0.81-0.68-2.42-0.68-3.21-1.39c3.21-0.68,5.59-0.68,8.85-1.41
	c0.77,0,0.77-0.68,0.77-0.68c0.84-1.41,1.61-2.09,2.45-3.5c7.22-8.39,14.47-16.8,20.11-25.9c0.81-2.09-0.82-3.5-3.22-2.78
	c-15.31,6.28-32.2,3.46-49.11,4.19c-4.83,0-9.63,0.7-15.27,1.39c-4.03,1.41-6.45,4.23-8.85,7.68v-4.89c0,0,0.79-0.68,0.79-1.38
	c-0.79,0-0.79,0-1.6,0v0.7c-0.82,0-1.61,0-1.61,0c-3.22,2.12-4.03,6.3-5.64,9.8v-4.23c0-0.68,0.81-1.38,0.81-2.07
	c0-0.7,0-1.38,0.8-2.82c-4.03,1.44-8.04,2.82-12.05,4.21c-12.88,4.91-24.98,13.28-34.64,22.4c-4.01,4.18-7.25,9.09-11.24,13.98
	c-2.42,3.51-6.45,6.3-9.66,9.1c-0.82-0.68-2.43,0-2.43,0.7h-0.79c0,0.73-0.81,1.41-0.81,2.12c0-2.82,0-6.3-1.61-9.12
	c0-0.68-0.82-0.68-0.82,0c0.82,2.82,0.82,5.62,0,7.73c-0.79-3.52-3.21-7.02-6.43-9.8c-0.81,0-1.61,0.68-0.81,0.68
	c2.42,2.1,4.03,4.89,4.84,7.01c0.8,2.11,0,4.89,0,6.98v-0.68c-1.61,0-2.42,0-3.24,0.68c-0.79,0.7-0.79,0.7-0.79,1.41c0,0,0,0-0.81,0
	c-1.61-2.09-4.01-4.21-5.64-6.28c-2.4-3.52-5.64-7.73-6.43-11.91c0-2.12-0.82-2.8-3.2-3.51c-1.65,0-3.26,0.71-4.86,0.71h-3.2
	c0,0.68,0,0.68,0,1.39c0,0.7,0,1.41-0.83,2.09c3.26,4.21,7.24,8.41,11.27,11.91c2.43,2.1,4.85,4.19,7.25,6.3
	c0.81,0.71,1.63,1.39,2.42,2.1c-7.24-2.1-13.7-3.51-20.94-5.62c-3.99-1.39-8.02-3.46-11.24-5.57c-4.84-2.12-8.87-4.23-12.09-7.69
	c-0.79-1.43-2.42-0.73-2.42,0c0,2.07-0.79,3.46-0.79,5.57c0,0,0,0,0,0.71c0,0.7,0,0.7,0.79,0.7c3.24,2.82,6.45,4.89,9.67,7.01
	c4.03,2.09,8.06,3.5,11.28,5.57c-53.94-0.68-107.83-0.68-161.77-0.68h-61.98c-8.06-4.89-15.28-9.08-23.34-13.99
	c0-0.7,0.81-2.11,0.81-2.82c0-1.39-0.81-3.5-1.6-4.89c-0.82-0.7-2.43-2.09-4.03-2.8c-2.43-1.4-7.25-2.11-9.67,0
	c-1.61,0.71-2.4,1.39-3.22,2.1c-3.21-1.39-7.24-3.5-11.27-4.89c0-2.12-2.43-4.19-4.81-4.19c-1.6,0-3.21,0.69-4.03,1.39
	c-6.45-2.09-12.88-3.5-18.52-4.89c-1.61-0.73-2.42-0.73-4.03-0.73h-0.79c-6.45-0.68-12.86-1.38-19.32-1.38
	c8.84-2.12,18.5-4.19,28.17-5.62c5.64-0.68,12.07-1.39,18.52-1.39c0.78,0.71,2.38,1.39,4.04,1.39c2.37,0,3.19-0.68,4.8-1.39h7.24
	c0,0.71,0.82,1.39,1.61,2.12c2.42,2.09,4.85,2.77,7.25,2.77c1.6,0,4.03-0.68,5.63-1.38c0.82-0.69,1.61-1.39,2.43-2.12
	c2.38,0,4.82,0.73,7.24,0.73c10.44,2.09,20.11,4.89,29.78,7.68c0,0.71,0.79,2.12,1.61,2.82c1.6,2.07,5.63,2.07,7.24,0
	c2.42,0.69,4.03,0.69,5.64,1.39c0,0-0.84,0-0.84,0.68c-0.77,2.12,0,4.23,2.43,6.3c0.79,0.71,3.21,1.41,4.82,1.41
	c1.61,0,2.42,0,4.03-0.7c0,0,0.81-0.71,1.61-1.39c1.61-1.39,1.61-2.11,2.42-3.5s0-3.5-0.81-4.89c-0.8-1.41-2.41-2.12-4.83-2.8
	c-2.42-0.73-5.64,0.68-7.24,2.07c-1.59-0.68-3.2-2.07-5.62-2.8c0,0,0,0,0-0.68c-0.84-2.09-2.42-3.5-4.82-3.5
	c-1.61,0-2.43,0.68-3.24,1.41c-11.28-4.23-22.51-6.3-33.79-8.41h-3.25c0-0.69,0-0.69,0-1.39c0-2.12-0.78-4.21-3.2-6.3
	c-0.79-0.73-2.4-1.41-4.03-2.11h-3.21c-1.61,0-3.22,0-4.83,0.7c-2.42,1.41-4.03,3.5-4.84,5.59c0,0.71,0,1.39,0,1.39h-5.64
	c-0.79-2.07-2.4-3.48-5.59-3.48c-2.43,0-4.87,1.41-5.64,4.21c-6.46,0-12.09,0.7-18.53,1.39c-16.12,2.11-31.38,6.3-46.69,11.91
	c-1.6,0-2.42,0-4.03,0.68c-0.79-2.79-4.03-4.18-7.24-4.18c-4.8,0-8.02,3.5-8.02,7.69v0.7c-5.64,2.09-10.48,4.91-14.51,7.69
	c-8.04,4.91-17.71,11.89-19.3,21.01c-0.83,0-0.83,0-0.83,0c-0.77-3.5-3.99-7.01-8.83-6.3c-0.8,0.68-0.8,0.68-1.61,0.68
	c1.61-9.8,16.08-14.69,21.71-22.4c1.61-2.07-1.6-4.18-3.21-2.77c-9.67,7-20.92,7-32.2,9.78c-9.65,1.41-18.48,3.52-27.35,7.71
	c-8.04,3.5-16.1,9.07-24.96,13.3c-9.67,4.18-18.5,4.89-28.96,6.3c-0.81,0.68-0.81,0.68-0.81,1.38c-0.8,0.69-0.8,1.41,0,1.41
	c10.46,1.39,20.1,2.1,29.77,7.01c8.86,3.48,16.1,9.07,24.96,13.28c8.87,3.5,17.7,5.59,26.56,7.71c11.27,2.09,23.32,2.79,32.17,9.09
	c2.43,1.39,5.64,0,4.03-2.11c-6.43-8.42-21.71-13.99-22.5-24.49c0.79,0,1.6,0.7,2.4,0.7c4.03,0.71,8.83-1.39,9.66-4.91
	c2.43,0.73,5.62,0,8.84,0h9.66c0,4.21,1.61,7.71,5.64,9.1c4.03,0.7,6.43,0,8.02-1.39c3.26,1.39,7.29,0.7,10.5,2.09
	c5.62,2.12,6.41,6.3,8.84,11.21c0,0.71,0.79,0.71,1.6,0c0.82-2.11,0.82-4.91-0.81-7v-2.09c-0.79-2.12-2.4-4.21-4.01-5.62
	c0.79-2.09,0.79-3.5,0-5.57c29.76,1.38,60.37,0.68,90.14,0.68h54.73c13.66,7.69,26.56,13.99,41.85,18.87c0.81,0,1.61,0.73,2.42,0.73
	c0.77,1.39,2.42,2.8,5.64,2.8c0.77,0,1.61,0,2.42-0.71c3.22,0.71,7.25,1.41,10.44,2.1c0.8,2.11,2.4,3.5,4.03,4.2
	c2.4,1.41,5.64,1.41,8.04,1.41c0.82-0.72,1.61-0.72,2.42-1.41c1.61-0.7,2.43-1.39,3.22-2.09c14.47,0.7,29.78-2.11,41.05-10.48
	c2.42-1.43,0-4.23-2.42-4.23c-6.43,1.41-12.88,3.5-19.29,4.91c-5.64,1.39-11.28,2.09-17.73,2.09c0,0,0,0,0-0.7
	c-0.8-2.07-2.4-4.19-4.83-4.89c-4.03-2.8-11.27-1.41-13.69,2.82c0,0.68,0,0.68,0,0.68c-0.8,0-0.8,0-0.8,0.7
	c-2.42-0.7-5.64-1.38-8.06-2.11c-0.77-1.39-2.38-2.8-4.8-2.8c-1.61,0-2.42,0.71-3.22,0.71c-7.26-2.09-14.51-4.21-21.75-6.98
	c-4.01-1.41-8.04-3.51-12.07-5.62h29.79c61.19,0,123.14,0,184.3-1.41c-2.42,0.73-4.03,1.41-5.62,1.41
	c-4.03,1.39-8.89,2.11-12.88,3.5c-2.42,0-7.25,0.71-8.88,2.8c-1.6,2.77-0.79,5.59-2.4,8.39l0.8,0.73h0.81
	c3.22-0.73,5.64-2.12,8.86-3.53c3.21-1.38,7.24-3.5,11.25-4.89c4.03-1.38,8.06-2.79,12.07-3.5c1.63-0.7,3.24-1.39,4.84-1.39
	c0,0.69,0.8,2.1,2.4,2.78c0,0.73,0.82,0.73,0.82,0.73h0.81c0.8,0,2.41-1.41,3.22-2.12c0.79,0,0.79-0.7,1.61-0.7
	c0,2.09-0.82,3.5-2.42,4.2c-0.8,0.69-4.04,2.07-4.83,1.39c-0.81-0.7-3.21,0-2.42,1.41c1.61,2.8,5.64,0.71,8.06-0.73
	c0.79-0.68,1.61-1.38,2.4-2.07c-0.79,0.69-0.79,1.39-0.79,2.07c-0.82,1.44,0.79,3.53,2.42,2.12c0,0,0,0,0-0.68c0,0,0,0,0.79,0v-0.71
	c0.82-1.41,0.82-2.8,0.82-4.18l0.79,0.68c0.82,1.39,0.82,2.77,0.82,4.21c0,0.68,0.77,0.68,0.77,0c0.83-0.71,0.83-2.12,0.83-3.51
	c-0.83-1.38-0.83-2.11-1.6-2.79c0.77,0,0.77,0,1.6,0c0,0.68,0.82,0.68,1.61,0.68h0.82c0,2.8,0,4.91-0.82,7
	c-0.79,0-0.79,0.71-0.79,0.71v0.7c-0.82,4.19-4.03,7.69-7.27,10.49c-1.61,0-2.4-0.69-3.21-0.69c-0.8,0-1.61,0.69-0.8,1.39
	c2.4,6.3,11.28,2.8,14.49-0.7c3.2-2.8,5.64-6.3,5.64-10.49c3.2,8.39,8.02,16.78,14.47,23.08c8.86,8.39,20.13,14.69,30.57,20.31
	c5.64,2.8,12.09,5.59,18.52,8.41c0,0.69,0.82,0.69,1.61,0c1.61-0.72,1.61-2.11,2.42-2.82c0-0.7,0.82-1.41,0.82-2.09
	c0.79,0.68,1.61,1.39,2.4,2.09c1.58,2.1,3.24,4.21,4.84,6.28c0.77,0.73,1.61,2.11,2.38,2.82c0.84,0,0.84,0,0.84,0
	c1.59,0.7,3.19,1.41,4.8,1.41c5.64,2.8,11.28,4.18,16.92,6.98c6.45,3.5,12.88,4.21,16.91,11.19c0.77,2.11,4.8,0.73,4.03-1.39
	c-2.42-4.91-4.03-11.21-6.45-16.1c-1.61-3.5-4.83-6.98-7.25-10.48c-4.03-8.41-10.46-16.1-17.71-22.4h12.89c0.79,0,1.61,0,1.61,0
	c0-0.7,0-0.7-0.82-0.7c1.61-0.69,1.61-2.1,0-2.1c-0.79-0.7-0.79-1.41-1.61-2.09c2.43,0.68,4.85,1.39,6.46,2.78
	c0.79,0.72,3.98,2.11,4.82,1.41c3.19,0,7.22-0.69,10.44-0.69c0.81,0,0.81,0,0.81,0c0.84,0,1.61-0.72,2.45-0.72
	c-0.84,0-0.84,0-1.61-0.69c0,0,0,0,0-0.7v-0.71h-0.84c-0.81-0.68-2.42-2.79-3.19-4.18c5.64,2.09,11.25,3.5,16.87,4.89
	c0.82,0,0.82,0,0.82,0c3.21-0.71,7.24-0.71,10.46-1.39c20.1-3.5,40.23-10.53,60.39-15.39
	C785.149,349.413,785.149,346.593,782.779,345.903z M541.309,308.093c-0.82-1.39-1.61-2.07-2.43-2.78c-2.42-2.11-4.82-4.2-7.24-6.29
	c-1.61-2.12-3.2-4.19-4.8-6.3c2.37-0.71,6.41-0.71,6.41,0c0,2.79,2.42,5.57,3.21,8.39c1.63,2.09,3.24,4.2,4.85,6.3
	C541.309,307.413,541.309,307.413,541.309,308.093z M66.469,303.203c10.44-4.91,22.53-7.69,34.6-9.8c4.03-0.68,8.06-1.39,12.09-2.09
	c-1.65,0.7-3.24,1.41-4.84,2.79c-4.03,2.12-7.25,4.92-10.47,7.01c-7.24,4.91-13.69,9.8-21.71,13.28c-8.9,4.91-17.73,6.3-28.19,5.61
	c-5.64,0-11.28-1.38-16.08-0.7C43.919,315.803,54.399,308.823,66.469,303.203z M101.069,346.593c-12.07-2.07-24.16-4.89-35.41-9.8
	c-7.25-3.48-14.5-7.69-22.53-11.19c8.85,1.41,17.7,2.09,27.37,2.82c9.67,0.68,17.69,5.57,25.75,11.19
	c3.21,2.79,6.43,5.59,10.46,7.68c0,0.68,0.81,0.68,0.81,0.68C105.099,347.973,102.679,347.293,101.069,346.593z M113.159,347.973
	c-4.03-1.38-6.45-4.18-9.67-6.98c-4.03-4.89-5.64-9.78-8.06-15.39c0-0.68-0.79-0.68-0.79,0c-1.63,4.2,0,9.12,3.21,14.01
	c-1.6-2.12-3.21-3.51-5.63-4.89c-4.83-3.51-11.28-5.62-17.69-7.03c-6.45-1.39-14.51-2.77-21.76-3.5
	c-6.43-0.68-12.07-2.07-17.71-2.78h0.84c4.8,0,9.63,0.71,14.47,0.71c8.04,0,15.29-1.43,22.51-4.23c7.29-3.5,14.51-7.69,20.94-11.87
	c3.22-2.12,5.64-4.21,8.86-6.3c0,0,0,0,0.81,0c-4.84,6.3-8.06,14.67-8.06,20.97c0,0.72,0.82,0.72,0.82,0
	c0-5.58,3.21-11.19,7.24-16.06v4.87c-1.61,2.11-2.42,4.89-2.42,8.39c-0.79,2.8,0,8.41,2.42,11.91
	C101.069,337.493,106.709,343.093,113.159,347.973z M108.319,327.693c-3.22-2.09-2.4-7-2.4-9.8c0-1.39,0-2.09,0.79-3.5
	c0.81,4.91,3.21,9.12,6.45,13.3C112.349,328.423,110.739,329.103,108.319,327.693z M113.949,326.303c-0.79-2.11-2.44-4.18-3.21-6.3
	c-0.82-3.5-1.61-6.29-2.42-9.09c1.6-1.41,4.03,2.09,5.63,3.48c0,2.11,0,4.23,0.82,5.61
	C114.769,322.123,114.769,324.193,113.949,326.303z M384.359,353.593c0.82-0.7,1.61-0.7,1.61-1.39c0.82-1.41,0.82-2.11,1.61-2.79
	c0-0.71,1.63-0.71,2.42,0c0,1.38,0,2.79-0.79,4.18c-0.82,2.11-2.42,3.5-4.03,2.8C383.569,356.393,382.759,354.273,384.359,353.593z
	 M535.669,331.903c-0.82,0.7-1.61,0.7-2.42,0.7c-4.04,1.39-8.02,2.8-12.87,4.89c-2.4,1.41-6.43,2.8-8.85,4.91
	c0-0.7,0.81-2.11,0.81-2.79c0.8-2.12,0.8-2.82,3.22-3.51c1.61-0.7,4.03-1.38,5.64-1.38c5.64-1.41,11.27-2.12,16.89-4.23
	C537.279,331.213,536.459,331.213,535.669,331.903z M511.529,307.413c-4.03-2.1-8.06-4.89-12.88-7.01c0.81-0.68,0.81-1.38,1.6-2.79
	c4.83,5.59,13.7,9.09,20.95,11.89c4.82,2.11,9.62,3.5,14.47,4.21c3.21,0.68,6.43,2.09,9.67,2.09c0,0.7,0,0.7,0,1.41
	c-0.82-0.71-0.82-0.71-1.61-0.71c-0.82-0.7-2.42-0.7-4.03-0.7c-0.82,0-1.61-0.69-3.24-0.69c-1.61,0-3.21-0.72-4.82-0.72
	c-0.82-0.68-0.82,0-0.82,0c4.85,2.11,9.67,3.5,14.52,5.61c0,0,0,0.69,0,1.41c0,0,0,0,0,0.71c-1.61-1.43-4.03-2.12-6.46-2.82
	c-4.82-2.09-9.67-3.5-14.47-4.91C519.589,312.323,515.559,310.203,511.529,307.413z M143.729,331.903c-1.61-0.69-2.42-2.8-2.42-3.48
	c0-0.73,0-1.41,0-1.41c0.81-1.41,2.42-2.09,2.42-3.5c0.79-3.51,0-5.62-0.81-9.12c0,0,0-0.68-0.8-0.68c0-0.71,0.8-2.1,1.61-2.8
	c0,2.8,1.61,5.59,1.61,8.39C146.149,323.513,145.339,328.423,143.729,331.903z M149.369,329.803c0,0.69,0,0.69-0.82,1.41
	c-0.79,2.1-2.4,2.78-3.21,2.1c1.61-2.1,1.61-5.62,1.61-8.39c0.81-5.62-0.8-11.21-1.61-16.83c0.81,0,0.81,0,1.61,0c0,0,0,0,0,0.73
	c0.81,0,0.81,0,0.81,0c0.79,1.38,1.61,3.5,1.61,4.89C150.979,319.303,149.369,324.193,149.369,329.803z M146.949,304.633
	c-4.03-1.43-7.25,3.46-8.86,7.69h-15.3c4.03-9.12,15.3-16.1,25.76-21.01c1.59-0.71,4.03-2.1,6.46-2.78c0.77,1.39,3.19,1.39,4.8,1.39
	s3.21,0,4.87-0.71c1.58-0.68,3.19-2.79,3.19-4.18c0-0.73,0.79-0.73,0.79-0.73c8.88-2.07,17.73-2.77,26.58-2.77
	c4.03,0,7.23,0.7,11.26,0.7c0,0,0,0,0,0.69c0,2.11,2.44,4.18,4.82,4.18c3.22,0,4.85-1.39,5.64-3.48c5.64,1.41,10.46,2.09,15.31,4.19
	c0.77,2.11,3.21,3.5,5.63,3.5c0.78,0,2.38,0,3.2-0.71c3.21,1.41,7.24,2.8,10.46,4.23v2.07c0,3.5,2.42,6.3,4.84,7.73
	c1.61,0.68,3.22,1.39,5.64,1.39h2.4c1.61-0.71,3.24-1.39,4.85-2.82c2.4,2.11,5.64,3.5,8.85,5.62c2.42,1.38,4.8,2.79,7.23,4.89
	h-26.56c-31.39,0-63.57-1.39-94.97,0.68c-0.82,0-0.82-0.68-1.61-0.68h-0.81c1.6-0.71,3.26-1.39,4.03-2.1
	c4.82-2.11,8.06-6.3,12.88-7.71c2.42-0.7,1.61-2.79,0-3.5c-5.64,0-10.46-0.68-15.31,0.71c-0.55,0-1.1,0-1.38,0.24
	c-0.09,0.15-0.16,0.31-0.22,0.46c0-0.22,0.08-0.37,0.22-0.46c1.54-3.41,3.17-7.33,6.23-9.34c2.4-2.09-0.82-4.2-2.42-2.8
	c-0.77,0.71-0.77,0.71-1.61,1.39c-1.61,0.71-4.03,1.41-4.8,2.12c-2.43,1.38-4.03,2.79-5.64,4.18
	C150.139,299.023,148.549,301.113,146.949,304.633z M155.009,317.213c2.42,0,4.8-1.41,7.22,0c1.61,1.41,2.45,2.09,4.03,3.48h-3.24
	c-2.38,0-4.82,0-7.24,0.72c0-0.72-0.77-0.72-1.61-0.72C155.009,320.003,155.009,318.623,155.009,317.213z M154.169,313.713v-2.1
	c3.26-2.11,4.87-4.91,8.85-6.98c2.43-1.43,5.64-1.43,8.88-1.43c-1.63,1.43-3.24,2.11-4.03,3.5
	C163.839,309.503,159.039,311.613,154.169,313.713z M150.979,306.023c0,0,0-0.71,0-1.39c0.81-2.82,3.19-4.23,5.63-6.34
	c1.59-0.68,2.43-2.07,4.03-2.78c-0.83,1.39-1.6,2.1-1.6,2.78c-1.61,2.82-2.43,4.91-4.03,7.73c-0.84,0.68-1.61,1.39-2.43,2.07
	C151.789,307.413,151.789,306.703,150.979,306.023z M163.019,330.493c-0.57-0.73-1.34-1.48-2.24-2.07h-0.14v-0.09
	c-1.63-1.1-3.63-1.76-5.63-1.32c-0.84,0.68-1.61,1.41-0.84,2.09c1.61,0.7,3.26,1.39,4.87,2.8c0.77,0.7,1.6,1.41,3.19,2.82
	c-0.81,0-0.81,0-1.59-0.73c-2.44-0.68-5.63-0.68-8.85-0.68c0.79-1.41,0.79-3.51,0.79-4.89c0.82-1.41,0.82-2.82,1.59-4.23
	c1.61,0.73,3.26,1.41,4.87,2.82c0.77,0,0.77,0,0.77,0.68c0.79,0,0.83,0,0.83,0.64c0.05,0,0.09,0.04,0.14,0.09
	c0.72,0.09,1.49,0.72,2.24,1.38V330.493z M546.939,326.303c-0.81,0-0.81,0-0.81,0c-62.79-1.38-126.35-1.38-189.12-1.38h-98.2
	c-31.39,0-63.57-1.41-94.97,0.68c-0.82-0.68-1.61-1.41-3.2-2.09c4.04,0,7.23,0.68,10.44,0c1.61-0.71,1.61-2.82,0-3.51
	c-0.81-0.7-2.42-1.38-3.21-2.79c29.8,1.41,59.55,0.68,88.53,0.68h97.39c57.16,0,114.29,0,171.44-0.68
	c3.21,1.41,7.24,2.09,10.44,3.48c2.42,0.72,4.82,1.43,7.24,1.43c-1.6,0.68-3.21,0.68-4.82,0.68c-0.81,0-0.81,0.71,0,0.71
	c3.22,0,5.64,0.68,8.04,1.41c0,0,0,0,0.81,0C546.939,325.603,546.939,325.603,546.939,326.303z M551.769,331.903h-0.8v-11.21
	c0-2.8,0.8-5.58,0.8-7.69c0.81,0.71,0.81,2.11,1.61,3.5c0,1.39,0.81,2.8,0.81,4.19c0.79,3.5,0.79,6.32,0.79,9.8
	C554.189,330.493,553.379,331.213,551.769,331.903z M560.619,329.803c-1.61-3.5-2.4-7.68-4.03-11.18c0-1.41-0.79-3.51-0.79-5.62
	c0.79,2.11,2.42,3.5,2.42,5.62c2.4,4.89,4.82,9.07,6.43,13.98C563.039,331.903,561.439,331.213,560.619,329.803z M560.619,320.693
	c-0.79-2.07-1.61-4.19-2.4-6.3c0-0.68-0.81-2.07-0.81-2.78c0-0.7,0-1.41,0.81-2.11c0-0.68,0.79-1.41,1.61-2.8
	c0.79,4.21,2.38,7.69,3.21,11.92c0.82,4.18,1.61,8.39,2.43,12.59C563.859,327.693,561.439,324.193,560.619,320.693z
	 M752.159,336.103c-1.6,0.69-3.21,1.39-4.03,2.07c-1.61,1.44-4.01,2.12-5.64,3.53h-4.82c-4.8,0-9.65,0.7-14.47,0.7
	c1.61-1.41,3.22-3.5,4.82-4.91c4.01-2.77,8.04-7,12.87-9.07C744.919,331.213,748.129,333.993,752.159,336.103z M736.859,324.923
	c1.65,0.68,2.42,1.38,3.23,2.09c-4.03,2.09-7.22,4.89-11.25,6.98c-2.42,2.11-6.45,4.18-9.67,7c0,0-0.79,0-1.61,0
	c4.03-4.89,9.67-9.78,14.47-13.98c0.84,0,0-0.71-0.77-0.71c-4.03,3.5-8.06,6.3-12.88,9.1c-1.63,2.09-4.85,3.5-7.27,5.59
	c-4.82,0-9.65,0.71-14.49,1.41h-3.22c4.03-2.79,7.25-6.3,11.28-9.09c6.43-5.62,15.31-14.01,24.93-15.42
	C732.029,320.003,734.479,322.803,736.859,324.923z M713.529,317.213c2.43-1.41,5.64-2.1,8.06-3.5h2.43c1.6,0.68,2.4,2.09,4,3.5
	c-1.6,0-3.21,0.68-4.82,2.09c-4.03,2.82-9.67,4.89-13.7,7.71c-8.04,4.89-14.49,10.48-21.71,15.39c-4.03,0-7.25,0-10.46-0.7
	c2.42-2.09,6.43-4.91,9.66-6.98c3.99-3.51,8.02-6.3,12.89-9.12C704.679,322.803,708.709,320.003,713.529,317.213z M698.269,315.113
	c0,0.69,0.77,2.1,1.61,1.39c3.19-0.7,5.61-2.11,8.83-2.79c-0.82,1.4-1.61,2.09-1.61,2.79c0.79,0.71,0.79,1.39,1.61,1.39
	c-4.03,2.11-7.25,4.23-11.28,6.3c-4.03,2.82-8.06,4.91-11.25,7.71c-2.42,2.09-4.82,3.5-6.43,4.89c0.79-1.39,1.61-2.8,3.21-4.19
	c3.22-4.91,8.02-9.09,12.05-13.3c0-0.68-0.77-0.68-0.77-0.68c-3.26,4.18-7.25,6.98-11.28,11.18c-1.6,1.41-4.03,3.51-4.84,5.6
	c-1.61,2.09-3.22,4.21-4.82,6.3h-5.64c-0.8-0.71-2.43-0.71-4.03-0.71c5.63-8.39,12.09-16.07,19.33-23.1
	c6.41-4.89,13.66-9.07,20.9-13.26C701.459,307.413,699.039,311.613,698.269,315.113z M687.369,293.163
	c0.17-0.07,0.26-0.03,0.33,0.08c0.81,0.27,1.65,0.56,2.51,0.86c4.03,0.73,8.06,2.8,11.25,4.19c-0.81,0.73-1.58,1.43-2.42,1.43
	c-1.61,1.39-2.42,2.09-4.03,2.8c0,0.68,0,0.68,0.84,0.68c1.58-0.68,3.19-1.39,4.8-2.8c0.81,0,1.61-0.68,2.42-1.38
	c1.61,0.7,2.42,1.38,4.03,2.09c-8.83,4.2-16.89,8.39-24.14,14.69c-4.03,3.5-7.24,8.39-11.27,12.62c-4.03,4.18-8.86,7.68-12.89,11.87
	c-2.42,0-4.8,0-7.22-0.68c3.19-3.51,6.41-7.01,9.65-10.51c4.82-4.91,10.46-9.8,15.28-14.71c0.82-0.68,0-1.39-0.79-0.68
	c-4.85,4.91-10.49,9.09-15.31,13.98c-4.03,4.21-8.06,7.71-12.86,11.21h-0.79c3.98-5.59,10.44-11.21,15.26-16.1
	c0-0.68-0.79-1.39-1.61-0.68c-3.21,3.48-7.24,6.98-10.44,10.48c-2.42,1.39-5.64,3.5-7.24,5.57c-1.61,0-2.43,0-4.03-0.68
	c2.42-2.77,4.82-6.28,8.06-9.8c3.21-4.18,8.01-8.39,12.84-11.89c8.87-7.71,17.73-16.08,28.19-21.7c0-0.35,0-0.68-0.09-0.86
	C687.589,293.203,687.479,293.183,687.369,293.163c-0.09,0.02-0.22,0.11-0.38,0.24c-9.66,5.62-19.33,13.3-28.19,20.31
	c-4.8,3.5-8.83,7.7-13.7,11.89c1.66-2.8,2.45-4.91,4.03-6.98c0.84-2.82,3.22-5.62,5.64-7.71c3.22-4.21,8.06-6.28,12.09-9.8
	c4.01-2.09,4.01-7.01,7.25-10.51C678.779,291.203,682.899,291.773,687.369,293.163z M649.129,364.803c-2.37,0-4.8-0.73-7.22-0.73
	c-3.21-3.5-5.64-6.29-7.24-10.48c-0.82-2.09-1.61-3.5-2.43-4.89c-0.79-0.73-0.79-1.41-0.79-2.11c1.61,0.7,3.22,1.38,5.64,1.38
	c-0.82,0.73-0.82,0.73-0.82,0.73C637.879,355.003,644.329,360.573,649.129,364.803z M639.489,363.393c-1.61,0-4.01-0.7-5.64-0.7
	c-1.61-2.8-3.22-5.6-4.01-8.42c-0.81-1.38-0.81-2.77-1.61-4.18c1.61,1.41,2.4,3.5,4.01,5.61
	C633.849,358.503,637.089,361.303,639.489,363.393z M636.269,336.793c-0.79,0-0.79,0.7-0.79,0.7c-4.03-0.7-7.25-1.39-11.28-2.09
	c0.8-1.41,1.61-2.8,2.4-4.91c1.63-2.8,4.03-6.3,5.64-9.8c0.82-0.69,0-0.69-0.79,0c-2.42,2.11-4.03,4.91-6.45,7.73
	c-1.61,2.07-3.22,4.18-4.83,6.3h-0.81c1.63-3.51,5.64-8.42,7.24-10.53c2.43-4.19,4.85-7.69,8.07-11.87
	c4.82-6.3,15.3-19.6,24.93-21.01c4.03-0.71,7.26-0.71,11.27-0.71c-1.61,2.8-1.61,7.01-4.01,9.12c-2.42,1.39-4.84,2.8-6.45,4.18
	c-2.42,2.12-4.8,3.51-7.24,5.6c-4.04,4.21-6.41,9.12-9.65,14.01c-1.61,2.79-2.4,4.91-4.03,7.7
	C637.879,333.313,637.089,334.723,636.269,336.793z M600.859,320.693c1.63-4.19,4.84-8.37,6.45-11.87c3.2-1.41,6.41-2.8,9.67-4.92
	c0.77,0.73,1.59,0.73,2.38,0c-7.25,7.71-12.05,17.51-16.08,26.59c-1.61,0-4.03-0.69-5.64-1.39
	C599.249,326.303,600.069,323.513,600.859,320.693z M593.609,328.423c-2.4-0.73-4.82-1.41-6.43-2.12c0-3.5,2.42-7,3.22-10.5v-0.69
	c4.84-1.4,9.67-3.5,13.7-4.91C600.069,315.803,596.039,321.413,593.609,328.423z M623.389,307.413c-3.22,4.2-7.25,7.7-9.67,11.89
	c-0.77,1.39-1.61,2.11-2.38,3.5c3.2-7.69,7.23-15.39,12.86-21.69c2.4-0.71,4.03-2.09,6.43-2.82c1.61-0.68,3.22-1.39,4.85-1.39
	C630.629,299.723,626.599,303.903,623.389,307.413z M639.489,294.833c4.03-0.73,8.87-2.11,12.86-2.82
	c-7.25,4.21-14.47,11.89-18.5,16.81c-4.82,4.89-8.04,10.48-12.07,15.37c-1.61,2.82-4.8,6.3-6.41,9.8c-0.83-0.68-2.42-0.68-4.03-1.39
	c4.03-5.59,5.64-12.6,10.44-18.21c3.22-4.89,6.45-8.37,10.46-12.58C633.849,301.113,637.089,296.903,639.489,294.833z
	 M604.099,338.173c-0.82,0-0.82,0.73-0.82,1.44c1.61,4.91,4.03,10.48,8.06,15.39c-1.61-0.73-3.26-1.41-4.03-2.11
	c-2.42-2.8-4.03-6.3-4.82-9.1c-0.82-2.09-1.63-4.89-2.42-7C601.669,336.793,602.489,337.493,604.099,338.173z M608.079,339.613
	c1.65,0.68,4.03,0.68,5.64,1.38c1.65,0.71,3.26,1.41,4.85,1.41v0.69c-0.82,0-0.82,1.43,0,2.11c0,2.77,2.42,6.3,3.21,8.39
	c0.82,2.11,2.42,4.91,3.22,6.3c-2.4-0.71-4.01-1.39-6.43-2.11c-1.59-0.69-2.43-0.69-3.2-1.39c0-0.69-0.83-1.39-0.83-0.69
	C611.339,350.793,610.509,345.203,608.079,339.613z M676.509,285.033c-3.21-1.41-6.43-1.41-8.85-2.11c-2.43,0-4.83-0.69-7.25-0.69
	c1.61-0.7,3.22-2.11,4.03-2.82c4.82,2.12,10.46,2.12,15.31,2.82C678.929,282.923,677.329,283.623,676.509,285.033z M686.179,275.233
	c-2.42,0-5.64,0-8.85,0.68h-5.64c0,0-0.82,0-1.61,0c3.22-1.41,6.43-3.48,9.67-5.59c1.61,0.68,3.21,0,4.01,0c2.42,0,4.03,0,6.45,0.68
	C688.599,272.433,687.789,273.823,686.179,275.233z M693.399,266.133h-7.22c5.64-4.2,11.25-8.41,16.89-12.62
	C699.879,257.723,696.619,261.933,693.399,266.133z M690.979,252.133c4.87,0,8.9-0.71,12.88-1.41c-4.82,3.5-10.46,7.68-15.26,11.21
	C689.369,258.403,690.209,255.633,690.979,252.133z M670.079,252.833h16.1c-0.84,2.12-1.61,4.89-2.42,7c0,2.1-1.61,4.19-1.61,6.3
	c-4.82,2.8-9.65,6.3-15.29,9.1c0.8-4.23,1.61-7.71,2.4-11.92C670.079,259.833,670.079,256.333,670.079,252.833z M666.859,252.833
	c0.8,0,1.61,0,1.61,0c0,3.5-0.81,7-0.81,10.48c-0.8,4.21-2.43,9.12-3.22,13.31C665.229,268.933,665.229,260.523,666.859,252.833z
	 M665.229,252.833c-2.4,8.39-3.21,17.49-4,25.9c-3.24,1.39-5.62,3.5-8.88,4.89v-10.5c0-0.69-1.61-0.69-1.61,0v7.68
	c-0.77,1.43-0.77,2.82-0.77,4.23c-2.42,1.39-5.64,2.78-8.06,4.18c-1.61,0-2.42,0.71-3.21,1.39v-15.37c0-6.3,2.42-14.01,4.03-20.28
	C649.969,253.513,657.989,253.513,665.229,252.833z M634.669,264.023c0.81,0,1.6,0,1.6-0.71c1.61-2.09,2.43-4.18,4.03-6.98
	c-2.42,8.37-4.03,17.49-4.82,25.9v-2.82C633.849,274.503,634.669,268.933,634.669,264.023z M623.389,259.833
	c-0.79,4.19,0,9.78,0,13.99v2.09c0,1.41,3.21,2.09,3.21,0.71c0.82-4.19,1.63-7.01,3.24-10.49c0.79-2.11,1.61-4.2,2.4-6.3
	c0,0.69,0.82,1.39,0.82,2.1c0,5.59-0.82,10.5,0,15.39c0,4.91,1.61,9.78,2.42,13.99c-5.64,2.09-11.28,4.2-16.91,6.98
	c-0.82-6.28-1.59-12.58-0.82-18.17c0.82-6.3,3.24-13.3,3.24-19.6C621.779,260.523,622.599,259.833,623.389,259.833z
	 M608.079,268.933v-2.11c3.26-2.12,7.29-3.51,11.28-5.6c-0.79,6.3-3.22,11.9-3.22,18.9c0.84,6.3-0.77,13.28,0,19.6
	c-2.42,1.39-4.03,2.09-6.41,3.48c0-6.3-3.26-13.28-3.26-19.58C606.469,278.733,606.469,273.823,608.079,268.933z M605.699,268.203
	c0,1.41-0.81,2.8-0.81,4.23c-0.79,4.89-0.79,9.1-0.79,13.28c0,2.82,0.79,6.3,0.79,9.8c0-1.41-0.79-2.79-0.79-4.2
	c-1.61-7.01-1.61-13.99-1.61-20.99C603.279,269.613,604.889,268.933,605.699,268.203z M592.819,277.323
	c2.42-2.09,4.82-4.2,8.04-6.32c0,11.92,0.81,23.1,2.42,35.02c-2.42,0.68-4.82,1.39-7.24,2.8c-0.8-5.62-3.22-11.21-3.22-16.81
	C591.999,287.103,592.819,282.233,592.819,277.323z M584.759,300.403c-0.79,2.8-0.79,5.62-0.79,8.42c0-2.8-0.82-4.92-0.82-7.71
	c0-3.5,0.82-6.28,0.82-9.8c0-2.78,0.79-4.89,1.6-7.01c1.61-2.07,3.22-4.18,5.64-6.3c-0.81,4.92-0.81,9.1-0.81,14.01
	c0.81,5.6,1.6,11.89,2.42,17.49c-2.42,1.41-4.85,2.11-7.25,2.82v-11.92C585.569,299.723,584.759,299.723,584.759,300.403z
	 M588.789,359.893c-0.82-2.8-2.42-4.89-3.22-7.69c0-0.7,0-0.7,0-1.41c0.8-0.7,1.61-2.09,2.4-2.82c0-0.68,0-0.68,0.82-0.68
	c0,0,0.81,0,1.61,0.68c0.81,0,0.81,0,1.6,0c1.61,1.44,3.24,2.12,4.85,3.53c-1.61,0.7-3.24,2.09-4.03,3.5
	c-1.61,2.09-2.42,4.18-3.22,5.57C589.599,360.573,589.599,359.893,588.789,359.893z M595.239,366.193c-1.63-1.39-2.42-2.12-4.03-3.5
	c0.79-2.12,2.4-3.51,4.03-5.6c0.8-1.39,2.4-2.82,3.22-4.89c0.79,0.69,1.61,0.69,2.4,1.39c-0.79,0.68-1.61,2.11-2.4,2.8
	c-1.61,2.79-3.22,4.91-4.03,7.68c0,0.73,1.61,1.41,1.61,0c1.6-2.07,2.42-4.18,4.03-5.57c0.79-1.41,2.42-2.8,3.21-3.5
	c0.82,0,1.61,0.7,2.42,1.39c-3.21,3.5-4.84,9.09-6.45,12.6C598.459,368.303,596.849,367.583,595.239,366.193z M600.859,370.373
	c0.81-3.48,2.42-6.3,4.03-9.07c0.81-1.41,2.42-2.8,3.19-4.21c0.84,0.69,1.65,0.69,2.43,1.41c0,0,0.83,0.68,1.6,0.68
	c-3.19,4.89-4.8,10.51-3.19,16.1C605.699,373.873,603.279,371.803,600.859,370.373z M610.509,376.673
	c-0.78-5.57,1.6-11.19,4.03-16.78c0.83,0.68,1.6,0.68,2.44,1.41c-2.44,2.09-1.61,6.28-1.61,9.07c0,3.5,0.77,7.73,3.2,10.53
	C616.139,379.493,613.719,378.103,610.509,376.673z M630.629,387.183c-4.03-2.1-7.24-3.5-11.27-5.6c0.81,0,0.81,0,0.81-0.68
	c-4.03-5.62-2.42-12.6-1.6-18.9c4.03,1.39,8.03,2.8,12.06,3.48c-3.21,2.82-2.4,7.71-1.6,10.51c0,4.18,1.6,8.41,3.21,11.87
	C631.449,387.183,631.449,387.183,630.629,387.183z M633.849,379.493c-0.79-0.7-0.79-0.7-1.61,0c0-1.39,0-2.11-0.79-3.5
	c0-2.8,1.61-6.3,1.61-9.1c0-0.7-0.82-0.7-0.82-0.7c0.82,0,0.82,0,1.61,0c-0.79,0.7-0.79,1.39-0.79,2.11
	c3.21,4.89,4.82,11.19,8.06,16.78C638.699,382.973,636.269,381.583,633.849,379.493z M649.969,394.893
	c-3.21-4.21-5.64-8.42-7.24-12.6c-2.43-4.91-4.03-10.49-6.46-15.4c2.43,0.69,4.85,0.69,7.25,1.41c0.81,5.57,5.61,10.49,8.06,14.67
	c2.42,4.89,4.03,9.8,6.41,14.69C654.769,396.983,652.349,395.593,649.969,394.893z M671.689,388.593
	c4.03,4.18,8.06,8.39,10.46,12.59c1.61,2.78,3.19,5.6,4.03,9.08c-0.84-0.68-0.84-0.68-1.61-1.39c-2.42-0.68-4.82-1.41-7.24-2.09
	c-1.61-4.89-3.22-9.8-4.83-14.01c-0.81-2.09-1.63-4.18-3.24-5.59C670.079,387.863,670.869,387.863,671.689,388.593z
	 M669.259,392.093c2.43,3.5,4.85,9.09,6.46,13.28c-1.61-0.68-3.22-1.41-4.85-2.09c-2.4-4.89-3.21-11.19-5.64-16.1
	C666.859,388.593,667.659,389.973,669.259,392.093z M663.529,389.373c0.09,0.17,0.17,0.34,0.25,0.51c0.25,0.51,0.47,1.02,0.66,1.51
	c0.2,0.52,0.4,1.04,0.6,1.54c0.4,1.01,0.81,1.98,1.21,2.92c0.2,0.47,0.4,0.94,0.6,1.39c0.61,1.38,1.21,2.7,1.81,4.02
	c0.19,0.44,0.39,0.87,0.59,1.3l-0.78-0.67c-0.61-0.18-1.26-0.4-1.94-0.65c-0.25-0.09-0.51-0.19-0.77-0.3
	c-0.27-0.1-0.53-0.21-0.79-0.32c-0.27-0.11-0.53-0.23-0.79-0.34c-1.32-0.58-2.63-1.24-3.77-1.89c-0.2-0.35-0.4-0.75-0.61-1.17
	c-0.2-0.43-0.4-0.89-0.6-1.37c-0.21-0.49-0.41-0.99-0.61-1.51c-0.1-0.25-0.2-0.51-0.3-0.78c-0.1-0.26-0.2-0.53-0.3-0.79
	c-0.39-1.74-1.2-3.48-2.11-5.23c-0.9-1.75-1.91-3.5-2.71-5.25c-0.59-1.57-1.19-3.14-1.88-4.68c-0.23-0.52-0.47-1.02-0.72-1.53
	c-0.13-0.25-0.25-0.5-0.39-0.75c-0.07-0.15-0.15-0.29-0.23-0.43c-0.12-0.23-0.25-0.46-0.39-0.69c-0.13-0.23-0.27-0.46-0.42-0.69
	c-0.1-0.16-0.2-0.32-0.31-0.47c-0.13-0.21-0.28-0.42-0.43-0.63c-0.33-0.47-0.69-0.93-1.06-1.39c-0.18-0.21-0.36-0.42-0.55-0.63
	c-0.01-0.01-0.02-0.02-0.03-0.03c0.49,0.27,0.98,0.54,1.45,0.83c0.48,0.28,0.95,0.57,1.42,0.87c0.46,0.29,0.92,0.59,1.38,0.9
	c0.91,0.6,1.81,1.22,2.72,1.83c0.46,0.31,0.91,0.61,1.38,0.9c0.93,0.58,1.88,1.15,2.87,1.68h0.01c0.21,1.23,0.61,2.45,1.12,3.67
	c0.26,0.61,0.54,1.21,0.85,1.81c0.38,0.75,0.79,1.49,1.2,2.23c0.21,0.36,0.41,0.73,0.62,1.09
	C662.399,387.273,663.009,388.343,663.529,389.373z M651.579,364.803c-3.22-2.11-5.64-4.23-8.06-7.02
	c-1.61-2.78-3.22-6.99-5.64-9.08c6.45,1.39,13.7,2.09,20.11,2.8c0,0.7,0,1.39,0.81,1.39c0.8,1.38,2.43,2.11,3.22,2.81
	c0.81,1.39,2.42,2.08,3.21,3.48c2.43,2.12,3.24,4.21,4.85,6.3C663.629,365.483,657.199,365.483,651.579,364.803z M682.149,364.803
	c-1.61-0.73-4.03-1.41-5.64-2.11c-4.82-2.8-9.65-6.3-13.68-9.8c0,0,0-0.69,0-1.39c6.43,0.7,13.68,0.7,20.13,0.7
	c3.22,4.19,6.41,9.1,10.44,11.87C689.369,364.803,686.179,364.803,682.149,364.803z M709.499,362.693
	c-7.24-3.51-14.49-6.99-20.9-11.19h8.02c0.81,0,1.65-0.71,1.65-0.71c0.77,2.8,4.8,4.91,7.22,6.3c3.22,1.41,6.44,3.48,9.65,4.91
	C712.739,362.003,711.109,362.003,709.499,362.693z M728.019,359.183c-2.4,0.71-4,0.71-6.43,1.39c-3.21-1.39-7.24-2.07-10.48-4.87
	c-1.61-1.43-3.22-3.5-5.62-4.91c9.65-0.7,18.53-1.38,28.15-2.09c0,0,0,0,0.84,0c0,2.09,2.38,3.5,4.03,4.89
	c0.77,0.68,2.38,1.41,3.98,2.11C737.669,357.093,732.869,358.503,728.019,359.183z M749.759,353.593c-2.42-0.7-4.03-1.39-5.64-2.8
	c-0.81-0.7-1.63-1.38-2.42-2.09c4.03-0.73,8.06-0.73,12.07-0.73c4.85-0.68,12.09-0.68,16.91,0
	C763.439,350.093,757.009,352.203,749.759,353.593z"/>
</svg>
